<svg width="22" height="22" viewBox="0 0 22 22" fill="none" xmlns="http://www.w3.org/2000/svg">
<path d="M15.6839 13.7883L15.6835 13.7891C14.6601 15.5623 12.9511 16.5781 11 16.5781C9.04912 16.5781 7.34296 15.5634 6.31675 13.7894C6.18012 13.5423 6.14589 13.2514 6.22144 12.9793C6.29702 12.7071 6.47645 12.4754 6.72111 12.3341C6.96578 12.1928 7.25613 12.1532 7.5297 12.2239C7.80313 12.2944 8.03795 12.4695 8.18369 12.7113C8.55188 13.3482 9.40992 14.4219 11 14.4219C12.5904 14.4219 13.4485 13.3468 13.8165 12.711L13.817 12.7102C13.8863 12.5849 13.9799 12.4746 14.0924 12.3859C14.2048 12.2972 14.3338 12.2317 14.4718 12.1934C14.6099 12.1551 14.7541 12.1447 14.8962 12.1627C15.0383 12.1808 15.1754 12.227 15.2994 12.2986C15.4235 12.3702 15.532 12.4659 15.6186 12.5799C15.7053 12.6939 15.7684 12.8241 15.8042 12.9628C15.84 13.1015 15.8478 13.2459 15.8271 13.3877C15.8065 13.5294 15.7578 13.6656 15.6839 13.7883ZM18.9219 11.0001V11C18.9219 9.4332 18.4573 7.90159 17.5868 6.59884C16.7163 5.2961 15.4791 4.28073 14.0316 3.68114C12.584 3.08155 10.9912 2.92467 9.45452 3.23034C7.91783 3.53601 6.50629 4.29049 5.39839 5.39839C4.2905 6.50628 3.53601 7.91783 3.23035 9.45452C2.92468 10.9912 3.08156 12.584 3.68115 14.0316C4.28073 15.4791 5.2961 16.7163 6.59885 17.5868C7.90159 18.4573 9.43321 18.9219 11 18.9219H11.0001C13.1004 18.9196 15.114 18.0843 16.5991 16.5991C18.0843 15.114 18.9196 13.1004 18.9219 11.0001ZM21.0781 11.0001C21.0781 12.9933 20.487 14.9418 19.3797 16.5991C18.2723 18.2564 16.6983 19.5482 14.8567 20.311C13.0152 21.0738 10.9888 21.2733 9.03386 20.8845C7.07889 20.4956 5.28314 19.5358 3.87369 18.1263C2.46424 16.7169 1.50439 14.9211 1.11553 12.9661C0.726661 11.0112 0.926242 8.98481 1.68903 7.14327C2.45182 5.30173 3.74356 3.72774 5.4009 2.62035C7.05823 1.51295 9.00672 0.92188 11 0.921875C13.672 0.924846 16.2337 1.9876 18.123 3.87698C20.0124 5.76636 21.0752 8.32806 21.0781 11.0001ZM8.43232 10.3332C8.19335 10.4929 7.91241 10.5781 7.625 10.5781C7.23961 10.5781 6.87 10.425 6.59749 10.1525C6.32498 9.88 6.17188 9.51039 6.17188 9.125C6.17188 8.8376 6.2571 8.55665 6.41678 8.31769C6.57645 8.07872 6.80339 7.89247 7.06892 7.78249C7.33444 7.6725 7.62662 7.64373 7.90849 7.6998C8.19037 7.75587 8.4493 7.89426 8.65252 8.09749C8.85574 8.30071 8.99414 8.55963 9.05021 8.84151C9.10628 9.12339 9.0775 9.41556 8.96752 9.68109C8.85753 9.94661 8.67128 10.1736 8.43232 10.3332ZM13.5677 7.91677C13.8067 7.7571 14.0876 7.67188 14.375 7.67188C14.7604 7.67188 15.13 7.82497 15.4025 8.09749C15.675 8.37 15.8281 8.73961 15.8281 9.125C15.8281 9.4124 15.7429 9.69335 15.5832 9.93231C15.4236 10.1713 15.1966 10.3575 14.9311 10.4675C14.6656 10.5775 14.3734 10.6063 14.0915 10.5502C13.8096 10.4941 13.5507 10.3557 13.3475 10.1525C13.1443 9.94929 13.0059 9.69037 12.9498 9.40849C12.8937 9.12661 12.9225 8.83444 13.0325 8.56891C13.1425 8.30339 13.3287 8.07644 13.5677 7.91677Z" fill="#475569" stroke="#475569" stroke-width="0.09375"/>
</svg>
