<svg width="24" height="16" viewBox="0 0 24 16" fill="none" xmlns="http://www.w3.org/2000/svg">
<path d="M11.7356 10.7131C12.6778 9.92111 13.3537 8.85849 13.6715 7.66934C13.9893 6.4802 13.9337 5.22208 13.5122 4.0656C13.0908 2.90913 12.3238 1.91027 11.3154 1.20447C10.3069 0.498683 9.10585 0.120117 7.87496 0.120117C6.64408 0.120117 5.44298 0.498683 4.43455 1.20447C3.42612 1.91027 2.65916 2.90913 2.23768 4.0656C1.8162 5.22208 1.7606 6.4802 2.07842 7.66934C2.39624 8.85849 3.0721 9.92111 4.01434 10.7131C2.54301 11.3784 1.26795 12.4116 0.312151 13.7131C0.135616 13.9537 0.0618736 14.2545 0.107146 14.5494C0.152419 14.8444 0.312997 15.1092 0.553557 15.2858C0.794117 15.4623 1.09495 15.536 1.38988 15.4908C1.68481 15.4455 1.94968 15.2849 2.12621 15.0444C2.78785 14.1407 3.65318 13.4058 4.652 12.8992C5.65083 12.3926 6.75501 12.1286 7.87496 12.1286C8.99492 12.1286 10.0991 12.3926 11.0979 12.8992C12.0967 13.4058 12.9621 14.1407 13.6237 15.0444C13.8002 15.285 14.0652 15.4457 14.3602 15.4911C14.6552 15.5365 14.9562 15.4628 15.1968 15.2862C15.4375 15.1097 15.5982 14.8448 15.6436 14.5498C15.6889 14.2547 15.6152 13.9538 15.4387 13.7131C14.4823 12.4118 13.207 11.3786 11.7356 10.7131ZM4.12496 6.12498C4.12496 5.3833 4.3449 4.65828 4.75695 4.0416C5.16901 3.42491 5.75468 2.94426 6.4399 2.66044C7.12512 2.37661 7.87912 2.30234 8.60655 2.44704C9.33398 2.59173 10.0022 2.94889 10.5266 3.47333C11.0511 3.99778 11.4082 4.66597 11.5529 5.3934C11.6976 6.12082 11.6233 6.87482 11.3395 7.56005C11.0557 8.24527 10.575 8.83094 9.95835 9.243C9.34167 9.65505 8.61664 9.87498 7.87496 9.87498C6.8804 9.87498 5.92657 9.4799 5.22331 8.77663C4.52005 8.07337 4.12496 7.11955 4.12496 6.12498ZM23.4468 15.2815C23.3277 15.3691 23.1926 15.4323 23.049 15.4675C22.9055 15.5028 22.7564 15.5094 22.6104 15.487C22.4643 15.4646 22.324 15.4137 22.1976 15.3371C22.0712 15.2605 21.9612 15.1598 21.8737 15.0406C21.2104 14.1387 20.3448 13.4051 19.3463 12.8987C18.3479 12.3923 17.2445 12.1273 16.125 12.125C15.8266 12.125 15.5404 12.0065 15.3295 11.7955C15.1185 11.5845 15 11.2984 15 11C15 10.7016 15.1185 10.4155 15.3295 10.2045C15.5404 9.99351 15.8266 9.87498 16.125 9.87498C16.658 9.87403 17.1846 9.75947 17.6699 9.53893C18.1551 9.3184 18.5878 8.99695 18.939 8.59603C19.2902 8.19511 19.5519 7.72392 19.7067 7.21388C19.8615 6.70384 19.9057 6.16666 19.8365 5.63817C19.7673 5.10967 19.5863 4.602 19.3054 4.149C19.0246 3.69599 18.6504 3.30806 18.2078 3.01107C17.7652 2.71408 17.2644 2.51485 16.7387 2.42667C16.213 2.33849 15.6746 2.36337 15.1593 2.49967C15.0154 2.54131 14.8646 2.55378 14.7158 2.53635C14.567 2.51893 14.4232 2.47196 14.2928 2.39819C14.1624 2.32443 14.0481 2.22537 13.9565 2.10682C13.8649 1.98826 13.7979 1.85261 13.7594 1.70781C13.7209 1.56301 13.7118 1.41199 13.7325 1.26361C13.7532 1.11523 13.8033 0.972471 13.8799 0.843721C13.9565 0.714972 14.0581 0.60282 14.1786 0.513849C14.2991 0.424878 14.4362 0.36088 14.5818 0.325609C15.8995 -0.0235164 17.2967 0.0864135 18.5435 0.637301C19.7903 1.18819 20.8124 2.1472 21.4414 3.35644C22.0705 4.56569 22.2691 5.95309 22.0045 7.29025C21.7398 8.6274 21.0278 9.8346 19.9856 10.7131C21.4569 11.3784 22.732 12.4116 23.6878 13.7131C23.863 13.9533 23.9361 14.2531 23.8909 14.547C23.8458 14.8409 23.6861 15.105 23.4468 15.2815Z" fill="#94A3B8"/>
</svg>
