<svg width="19" height="21" viewBox="0 0 19 21" fill="none" xmlns="http://www.w3.org/2000/svg">
<path d="M2.30534 10.5591L2.30538 10.5591L11.5078 1.38194L11.5079 1.3819C12.2026 0.687536 13.1447 0.297591 14.127 0.297852C14.6133 0.297981 15.0949 0.393904 15.5442 0.580144C15.9935 0.766384 16.4017 1.03929 16.7455 1.38329C17.0893 1.72729 17.362 2.13564 17.548 2.58502C17.734 3.03441 17.8297 3.51603 17.8295 4.00239C17.8294 4.48874 17.7335 4.97031 17.5473 5.4196C17.3611 5.86866 17.0884 6.27668 16.7446 6.62039C16.7445 6.62056 16.7443 6.62073 16.7441 6.62091L16.7292 6.63492L16.7288 6.63529L7.74756 15.2809C7.6455 15.3791 7.52511 15.4562 7.39326 15.5078C7.2614 15.5594 7.12067 15.5846 6.97909 15.5818C6.83751 15.5791 6.69786 15.5485 6.56812 15.4918C6.43837 15.435 6.32107 15.3533 6.2229 15.2513C6.12474 15.1492 6.04764 15.0288 5.996 14.8969C5.94437 14.7651 5.91921 14.6244 5.92196 14.4828C5.92471 14.3412 5.95533 14.2016 6.01205 14.0718C6.06877 13.9421 6.15049 13.8248 6.25255 13.7266L6.25256 13.7266L15.2254 5.09033L15.2254 5.09034L15.2261 5.0896C15.5153 4.79858 15.6771 4.40458 15.6759 3.99428C15.6746 3.58397 15.5104 3.19098 15.2193 2.90175C15.0752 2.75854 14.9043 2.64511 14.7164 2.56795C14.5285 2.49078 14.3272 2.45139 14.124 2.45202C13.7137 2.45328 13.3207 2.61749 13.0315 2.90852L3.82915 12.0827L3.82909 12.0828C3.18739 12.7248 2.82698 13.5953 2.82716 14.503C2.82725 14.9525 2.91586 15.3975 3.08793 15.8127C3.26001 16.2279 3.51218 16.6051 3.83004 16.9228C4.14791 17.2406 4.52524 17.4926 4.9405 17.6645C5.35576 17.8364 5.80082 17.9249 6.25026 17.9248C7.15793 17.9246 8.02836 17.5638 8.67006 16.9219C8.67007 16.9219 8.67008 16.9219 8.67008 16.9219L16.3632 9.23441L16.3632 9.23439C16.4635 9.1341 16.5826 9.05454 16.7136 9.00026C16.8446 8.94598 16.9851 8.91805 17.1269 8.91805C17.2688 8.91805 17.4092 8.94598 17.5403 9.00026C17.6713 9.05454 17.7904 9.1341 17.8907 9.23439C17.991 9.33469 18.0705 9.45375 18.1248 9.5848C18.1791 9.71584 18.207 9.85629 18.207 9.99812C18.207 10.14 18.1791 10.2804 18.1248 10.4115C18.0722 10.5385 17.9957 10.6544 17.8997 10.7527L17.8961 10.7536L17.8869 10.7628L10.1938 18.4503L10.2269 18.4834M2.30534 10.5591L2.27224 10.5259C1.21701 11.5808 0.624043 13.0116 0.623779 14.5037C0.623516 15.9957 1.21598 17.4268 2.27084 18.482C3.32569 19.5373 4.75654 20.1302 6.24859 20.1305C7.74065 20.1308 9.1717 19.5383 10.2269 18.4834M2.30534 10.5591C1.25893 11.6052 0.670916 13.0241 0.670654 14.5037C0.670393 15.9833 1.25792 17.4025 2.30399 18.4489C3.35006 19.4953 4.76898 20.0834 6.2486 20.0836C7.72823 20.0839 9.14735 19.4964 10.1938 18.4503L10.2269 18.4834M2.30534 10.5591L10.2269 18.4834" fill="#475569" stroke="#475569" stroke-width="0.09375"/>
</svg>
