<svg width="20" height="22" viewBox="0 0 20 22" fill="none" xmlns="http://www.w3.org/2000/svg">
<path d="M2.25 21.875L2.25004 21.8282C1.95791 21.8279 1.6701 21.7577 1.4107 21.6234C1.1513 21.489 0.927876 21.2944 0.759142 21.056C0.590407 20.8175 0.481277 20.5421 0.440893 20.2528C0.400509 19.9634 0.430047 19.6687 0.527036 19.3931L0.527227 19.3925L3.3566 11.015L3.36167 11L3.3566 10.985L0.527227 2.60754L0.52723 2.60754L0.527057 2.60704C0.40434 2.25667 0.391204 1.87724 0.489398 1.51921C0.587591 1.16119 0.792459 0.841546 1.07675 0.602799C1.36105 0.364053 1.71129 0.217518 2.0809 0.182687C2.45044 0.147862 2.82183 0.226352 3.14568 0.407721C3.14574 0.407751 3.14579 0.407781 3.14585 0.407811L18.9011 9.39825L18.9119 9.40442H18.9157C19.1925 9.56357 19.4229 9.7925 19.5838 10.0685C19.7467 10.348 19.8326 10.6657 19.8326 10.9893C19.8326 11.3128 19.7467 11.6305 19.5838 11.9101C19.4208 12.1896 19.1866 12.4208 18.905 12.5802L18.9049 12.5803L3.15486 21.5868L3.15481 21.5868L3.15213 21.5885L3.14517 21.5932C2.8717 21.7466 2.5635 21.8275 2.24991 21.8282L2.25 21.875ZM2.25 21.875C2.5722 21.8744 2.88885 21.7911 3.16969 21.6332L3.16875 0.366915C2.83656 0.18083 2.45558 0.100294 2.0765 0.136019C1.69741 0.171743 1.33819 0.322035 1.04661 0.566903C0.755024 0.811772 0.544903 1.13961 0.444192 1.50681C0.343481 1.87402 0.356953 2.26318 0.482817 2.62254L3.31219 11L0.482817 19.3775C0.383344 19.6602 0.353048 19.9625 0.394468 20.2592C0.435888 20.556 0.547816 20.8385 0.720877 21.0831C0.893938 21.3276 1.12309 21.5272 1.38914 21.665C1.65519 21.8028 1.95039 21.8748 2.25 21.875ZM2.87966 19.1657L2.84014 19.2827L2.94734 19.2214L17.2677 11.0304L17.3389 10.9897L17.2676 10.949L2.94636 2.77683L2.83925 2.71571L2.87872 2.83254L5.26278 9.89004L5.27355 9.92192H5.30719H10.5C10.7859 9.92192 11.0602 10.0355 11.2624 10.2377C11.4645 10.4399 11.5781 10.7141 11.5781 11C11.5781 11.286 11.4645 11.5602 11.2624 11.7624C11.0602 11.9646 10.7859 12.0782 10.5 12.0782H5.30719H5.27355L5.26278 12.11L2.87966 19.1657Z" fill="#4F46E5" stroke="#4F46E5" stroke-width="0.09375"/>
</svg>
