<svg width="18" height="18" viewBox="0 0 18 18" fill="none" xmlns="http://www.w3.org/2000/svg">
<path d="M15.875 5.31248H13.8484C14.1384 4.89067 14.2996 4.39372 14.3125 3.88201C14.3241 3.49219 14.2558 3.10412 14.1119 2.74164C13.968 2.37917 13.7516 2.04993 13.4758 1.77417C13.2 1.4984 12.8708 1.28193 12.5083 1.13805C12.1459 0.994165 11.7578 0.92591 11.368 0.937477C11.0079 0.945161 10.6533 1.0272 10.3265 1.17845C9.99968 1.3297 9.70764 1.54689 9.46875 1.81638C9.29255 2.01738 9.13561 2.23448 9 2.46482C8.86439 2.23448 8.70745 2.01738 8.53125 1.81638C8.29236 1.54689 8.00032 1.3297 7.67349 1.17845C7.34666 1.0272 6.99208 0.945161 6.63203 0.937477C6.24221 0.92591 5.85414 0.994165 5.49167 1.13805C5.12919 1.28193 4.79996 1.4984 4.52419 1.77417C4.24843 2.04993 4.03195 2.37917 3.88807 2.74164C3.74419 3.10412 3.67593 3.49219 3.6875 3.88201C3.70036 4.39372 3.86158 4.89067 4.15156 5.31248H2.125C1.7106 5.31248 1.31317 5.4771 1.02015 5.77012C0.72712 6.06315 0.5625 6.46058 0.5625 6.87498V9.37498C0.562427 9.73518 0.686807 10.0843 0.914592 10.3634C1.14238 10.6424 1.45957 10.8342 1.8125 10.9062V15.625C1.8125 16.0394 1.97712 16.4368 2.27015 16.7298C2.56317 17.0229 2.9606 17.1875 3.375 17.1875H14.625C15.0394 17.1875 15.4368 17.0229 15.7299 16.7298C16.0229 16.4368 16.1875 16.0394 16.1875 15.625V10.9062C16.5404 10.8342 16.8576 10.6424 17.0854 10.3634C17.3132 10.0843 17.4376 9.73518 17.4375 9.37498V6.87498C17.4375 6.46058 17.2729 6.06315 16.9799 5.77012C16.6868 5.4771 16.2894 5.31248 15.875 5.31248ZM15.5625 9.06248H9.9375V7.18748H15.5625V9.06248ZM10.875 3.06013C10.9442 2.98338 11.0284 2.92175 11.1225 2.87914C11.2167 2.83652 11.3186 2.81382 11.4219 2.81248H11.4492C11.5814 2.8121 11.7124 2.83832 11.8342 2.88958C11.9561 2.94083 12.0664 3.01607 12.1586 3.11082C12.2508 3.20558 12.323 3.31791 12.3709 3.44113C12.4188 3.56435 12.4415 3.69595 12.4375 3.8281C12.4362 3.93141 12.4135 4.03332 12.3708 4.12743C12.3282 4.22154 12.2666 4.30582 12.1898 4.37498C11.6508 4.8531 10.7641 5.09841 10.0312 5.2156C10.1484 4.48591 10.3938 3.5992 10.875 3.06013ZM5.85156 3.10154C6.03701 2.91808 6.2868 2.81435 6.54766 2.81248H6.57812C6.68143 2.81382 6.78334 2.83652 6.87745 2.87914C6.97157 2.92175 7.05585 2.98338 7.125 3.06013C7.60312 3.5992 7.84844 4.48513 7.96484 5.21716C7.23828 5.0992 6.34375 4.85388 5.81016 4.37498C5.7334 4.30582 5.67178 4.22154 5.62916 4.12743C5.58654 4.03332 5.56384 3.93141 5.5625 3.8281C5.55904 3.69374 5.58288 3.56008 5.63256 3.43519C5.68225 3.31031 5.75675 3.1968 5.85156 3.10154ZM2.4375 7.18748H8.0625V9.06248H2.4375V7.18748ZM3.6875 10.9375H8.0625V15.3125H3.6875V10.9375ZM9.9375 15.3125V10.9375H14.3125V15.3125H9.9375Z" fill="#4F46E5"/>
</svg>
