<svg width="21" height="21" viewBox="0 0 21 21" fill="none" xmlns="http://www.w3.org/2000/svg">
<path d="M2.82812 18.125V18.1719H2.875H10.375C11.8676 18.1719 13.3267 17.7293 14.5678 16.9C15.8089 16.0707 16.7762 14.8921 17.3474 13.5131C17.9186 12.1341 18.0681 10.6166 17.7769 9.15268C17.4857 7.68873 16.7669 6.344 15.7114 5.28855C14.656 4.2331 13.3113 3.51433 11.8473 3.22314C10.3834 2.93194 8.86595 3.08139 7.48694 3.6526C6.10792 4.2238 4.92926 5.1911 4.1 6.43218C3.27074 7.67326 2.82812 9.13237 2.82812 10.625V18.125ZM3.51687 3.76687C5.33597 1.94777 7.80243 0.924598 10.375 0.921875C12.9484 0.921882 15.4165 1.94417 17.2361 3.76385C19.0558 5.58354 20.0781 8.05157 20.0781 10.625C20.0781 13.1984 19.0558 15.6665 17.2361 17.4861C15.4165 19.3058 12.9484 20.3281 10.375 20.3281H2.5C2.01515 20.3281 1.55016 20.1355 1.20732 19.7927C0.86448 19.4498 0.671875 18.9848 0.671875 18.5V10.625C0.674598 8.05243 1.69777 5.58597 3.51687 3.76687ZM9.57812 11C9.57812 11.2874 9.4929 11.5683 9.33323 11.8073C9.17356 12.0463 8.94661 12.2325 8.68109 12.3425C8.41556 12.4525 8.12339 12.4813 7.84151 12.4252C7.55963 12.3691 7.30071 12.2307 7.09749 12.0275C6.89426 11.8243 6.75587 11.5654 6.6998 11.2835C6.64373 11.0016 6.6725 10.7094 6.78249 10.4439C6.89247 10.1784 7.07872 9.95144 7.31769 9.79177C7.55665 9.6321 7.8376 9.54688 8.125 9.54688C8.51039 9.54688 8.88 9.69997 9.15251 9.97249C9.42503 10.245 9.57812 10.6146 9.57812 11ZM14.0781 11C14.0781 11.2874 13.9929 11.5683 13.8332 11.8073C13.6736 12.0463 13.4466 12.2325 13.1811 12.3425C12.9156 12.4525 12.6234 12.4813 12.3415 12.4252C12.0596 12.3691 11.8007 12.2307 11.5975 12.0275C11.3943 11.8243 11.2559 11.5654 11.1998 11.2835C11.1437 11.0016 11.1725 10.7094 11.2825 10.4439C11.3925 10.1784 11.5787 9.95144 11.8177 9.79177C12.0567 9.6321 12.3376 9.54688 12.625 9.54688C13.0104 9.54688 13.38 9.69997 13.6525 9.97249C13.925 10.245 14.0781 10.6146 14.0781 11Z" fill="#475569" stroke="#475569" stroke-width="0.09375"/>
</svg>
